<svg xmlns="http://www.w3.org/2000/svg" xmlns:xlink="http://www.w3.org/1999/xlink" width="500" zoomAndPan="magnify" viewBox="0 0 375 374.999991" height="500" preserveAspectRatio="xMidYMid meet" version="1.0"><defs><g/><clipPath id="eeb9f929f1"><path d="M 2 240.296875 L 374.234375 240.296875 L 374.234375 247.25 L 2 247.25 Z M 2 240.296875 " clip-rule="nonzero"/></clipPath></defs><path fill="#ffffff" d="M 13.347656 232.1875 C 13.347656 232.1875 4.839844 223.453125 4.414062 218.390625 C 3.984375 213.335938 7.039062 193.199219 7.039062 193.199219 C 7.039062 193.199219 11.34375 158.878906 24.75 147.875 C 38.152344 136.839844 56.421875 130.925781 65.6875 131.910156 C 74.953125 132.925781 79.621094 133.914062 79.621094 133.914062 C 79.621094 133.914062 121.777344 113.085938 167.550781 105.570312 C 213.351562 98.046875 256.429688 91.511719 268.226562 94.171875 C 279.988281 96.863281 297.433594 111.445312 302 117.425781 C 306.570312 123.40625 310.28125 129.941406 310.28125 129.941406 C 310.28125 129.941406 326.414062 131.058594 333.28125 142.386719 C 340.179688 153.71875 343.207031 166.035156 344.125 176.1875 C 345.046875 186.335938 343.171875 191.949219 343.171875 191.949219 C 343.171875 191.949219 342.746094 227.589844 339.984375 233.535156 C 337.222656 239.480469 331.734375 242.734375 331.734375 242.734375 C 331.734375 242.734375 320.5 243.027344 315.472656 242.929688 C 310.414062 242.796875 300.71875 242.5 300.554688 240.335938 C 300.421875 238.167969 294.445312 227.457031 294.445312 227.457031 C 294.445312 227.457031 276.042969 227.195312 272.726562 228.902344 C 269.40625 230.644531 262.738281 237.675781 258.828125 240.039062 C 254.949219 242.402344 210.824219 240.398438 210.824219 240.398438 L 196.957031 228.671875 L 66.117188 230.183594 L 13.347656 232.1875 " fill-opacity="1" fill-rule="evenodd"/><path fill="#020202" d="M 216.800781 162.816406 C 216.800781 162.816406 232.96875 139.859375 245.324219 138.644531 C 257.675781 137.429688 275.1875 148.132812 290.5 145.609375 C 305.777344 143.078125 316.066406 136.113281 322.703125 136.375 C 329.308594 136.671875 333.28125 142.386719 333.28125 142.386719 C 333.28125 142.386719 326.875 138.21875 318.429688 141.269531 C 309.984375 144.292969 291.125 156.90625 271.148438 152.375 C 251.136719 147.875 247.488281 143.175781 239.835938 145.769531 C 232.179688 148.398438 216.800781 162.816406 216.800781 162.816406 Z M 266.382812 175.59375 C 266.382812 175.59375 306.601562 166.296875 306.765625 170.113281 C 306.964844 173.917969 299.472656 197.042969 289.054688 205.386719 C 278.609375 213.726562 274.039062 213.695312 274.039062 213.695312 C 274.039062 213.695312 274.535156 197.140625 272.527344 191.226562 C 270.523438 185.316406 266.382812 175.59375 266.382812 175.59375 Z M 227.382812 219.378906 C 227.382812 219.378906 225.804688 203.1875 226.429688 196.320312 C 227.019531 189.457031 229.914062 178.21875 229.914062 178.21875 C 229.914062 178.21875 234.3125 171.554688 241.148438 169.386719 C 246.996094 167.546875 252.09375 170.730469 255.179688 172.871094 C 263.261719 178.421875 270.6875 196.027344 267.929688 212.644531 C 267.207031 216.949219 264.875 222.238281 263.230469 225.816406 C 258.726562 235.570312 252.679688 240.726562 246.539062 239.121094 C 241.179688 237.707031 234.773438 232.878906 230.898438 227.558594 C 228.695312 224.535156 227.382812 219.609375 227.382812 219.378906 Z M 14.429688 166.367188 C 14.429688 166.367188 5.066406 185.054688 7.335938 200.425781 C 9.636719 215.832031 8.84375 217.4375 8.679688 217.738281 C 8.519531 218.035156 5.363281 222.664062 7.5 225.484375 C 9.636719 228.3125 13.152344 230.871094 13.152344 230.871094 L 81.261719 229.988281 C 81.261719 229.988281 74.203125 242.273438 63.847656 244.210938 C 53.535156 246.148438 42.59375 246.113281 42.59375 246.113281 L 28.859375 245.292969 C 28.859375 245.292969 5.722656 237.675781 2.207031 218.097656 C -1.339844 198.523438 0.0078125 182.328125 6.121094 174.9375 C 12.195312 167.546875 14.429688 166.367188 14.429688 166.367188 Z M 17.785156 215.273438 C 17.785156 215.273438 10.457031 199.277344 11.769531 193.460938 C 13.085938 187.617188 17.0625 186.136719 20.808594 187.617188 C 24.550781 189.09375 56.359375 198.585938 56.359375 198.585938 L 140.078125 197.109375 C 140.078125 197.109375 178.03125 184.855469 188.609375 186.597656 C 199.160156 188.339844 198.402344 191.261719 199.648438 195.367188 C 200.898438 199.476562 196.628906 215.535156 196.628906 215.535156 C 196.628906 215.535156 155.816406 216.820312 154.570312 216.191406 C 153.355469 215.601562 149.507812 212.28125 149.507812 212.28125 L 47.488281 213.367188 C 47.488281 213.367188 44.597656 215.601562 43.578125 215.832031 C 42.59375 216.0625 22.019531 216.191406 20.773438 215.996094 C 19.492188 215.832031 17.785156 215.273438 17.785156 215.273438 Z M 332.824219 172.050781 C 336.4375 172.050781 339.03125 185.875 338.601562 202.957031 C 338.148438 220.035156 334.859375 233.894531 331.246094 233.894531 C 327.632812 233.894531 325.035156 220.035156 325.496094 202.957031 C 325.921875 185.875 329.207031 172.050781 332.824219 172.050781 Z M 189.957031 228.707031 C 189.957031 228.707031 194.160156 235.867188 198.5 239.941406 C 202.835938 244.042969 204.117188 244.078125 204.117188 244.078125 L 250.710938 244.339844 L 253.570312 243.289062 C 253.570312 243.289062 240.558594 243.78125 234.773438 237.835938 C 228.957031 231.859375 226.164062 223.75 226.164062 223.75 C 226.164062 223.75 221.863281 227.917969 219.757812 228.246094 C 217.691406 228.609375 189.957031 228.707031 189.957031 228.707031 Z M 77.816406 133.78125 C 77.816406 133.78125 80.117188 136.375 85.894531 136.871094 C 91.644531 137.363281 133.539062 132.535156 148.390625 132.203125 C 163.242188 131.84375 187.296875 132.960938 187.296875 132.960938 C 187.296875 132.960938 196.496094 128.789062 209.640625 128.527344 C 222.75 128.296875 236.320312 129.679688 236.320312 129.679688 C 236.320312 129.679688 253.40625 132.074219 255.441406 133.484375 C 257.480469 134.867188 261.652344 134.140625 263.359375 132.011719 C 265.070312 129.871094 264.316406 126.886719 267.269531 125.40625 C 270.226562 123.929688 287.710938 118.378906 289.023438 122.191406 C 290.304688 126.03125 282.847656 132.796875 282.847656 132.796875 L 303.875 128.789062 C 303.875 128.789062 290.433594 110.988281 280.546875 106.128906 C 270.625 101.234375 255.902344 99.328125 251.796875 115.847656 C 247.722656 132.402344 248.96875 130.53125 248.96875 130.53125 L 239.703125 129.414062 L 235.628906 128.199219 C 235.628906 128.199219 235.53125 116.011719 242.757812 106.226562 C 249.988281 96.40625 255.902344 92.921875 255.902344 92.921875 C 255.902344 92.921875 207.273438 87.765625 166.726562 92.855469 C 147.832031 95.21875 138.765625 96.601562 131.769531 98.667969 C 128.382812 99.652344 115.042969 106.226562 104.398438 113.351562 C 89.941406 123.011719 77.816406 133.78125 77.816406 133.78125 Z M 291.914062 226.699219 C 291.914062 226.699219 293.554688 235.046875 297.140625 240.171875 C 300.6875 245.292969 301.835938 245.554688 301.835938 245.554688 L 333.054688 244.339844 C 333.054688 244.339844 326.542969 237.640625 325.558594 230.675781 C 324.574219 223.710938 322.929688 211.957031 322.929688 211.957031 C 322.929688 211.957031 312.679688 228.933594 307.652344 229.5625 C 302.59375 230.183594 291.914062 226.699219 291.914062 226.699219 " fill-opacity="1" fill-rule="evenodd"/><g clip-path="url(#eeb9f929f1)"><path fill="#3955ff" d="M 363.214844 247.296875 L 2.371094 247.296875 C 2.371094 247.296875 346.65625 240.398438 358.320312 240.824219 C 372.613281 241.351562 383.191406 247.296875 363.214844 247.296875 " fill-opacity="1" fill-rule="evenodd"/></g><path fill="#3955ff" d="M 246.273438 154.246094 C 240.425781 153.785156 233.921875 161.339844 232.96875 166.296875 C 235.925781 164.523438 239.574219 162.589844 244.269531 162.390625 C 247.886719 162.226562 251.269531 163.214844 253.636719 164.394531 C 254.523438 164.820312 255.3125 165.476562 256.035156 165.445312 C 255.277344 159.664062 252.058594 154.671875 246.273438 154.246094 Z M 24.652344 154.246094 C 22.648438 158.25 20.3125 166.332031 22.648438 171.65625 C 24.027344 174.773438 27.9375 177.761719 32.699219 176.25 C 34.34375 175.757812 36.382812 174.214844 37.792969 172.703125 C 40.75 169.648438 42.691406 166.035156 44.101562 161.601562 C 46.335938 154.707031 46.632812 141.863281 36.347656 143.042969 C 31.386719 143.570312 26.558594 150.5 24.652344 154.246094 Z M 197.023438 141.105469 C 193.34375 142.554688 190.1875 144.359375 187.527344 146.195312 C 184.863281 148.035156 181.972656 150.074219 179.574219 152.800781 C 177.601562 155.066406 174.613281 158.546875 174.417969 162.195312 C 174.21875 165.902344 176.878906 168.699219 179.3125 169.648438 C 183.054688 171.160156 188.777344 170.113281 192.320312 168.996094 C 200.4375 166.398438 208.984375 159.925781 214.46875 153.554688 C 220.054688 147.085938 219.824219 138.382812 209.113281 138.511719 C 204.21875 138.578125 200.601562 139.726562 197.023438 141.105469 Z M 281.433594 101.265625 C 254.6875 85.269531 242.5625 103.53125 238.222656 128.5625 C 241.3125 128.789062 244.042969 129.382812 247.03125 129.707031 C 248.507812 123.335938 249.988281 116.996094 252.679688 111.609375 C 258.992188 99.128906 269.242188 98.636719 280.285156 105.207031 C 289.941406 110.957031 297.664062 119.230469 303.480469 128 C 304.992188 127.871094 306.703125 127.902344 308.34375 127.902344 C 302.230469 117.164062 291.816406 107.472656 281.433594 101.265625 Z M 340.542969 166.59375 C 337.980469 160.878906 333.085938 159.664062 331.246094 166.003906 C 332.558594 163.902344 335.746094 164.394531 337.191406 165.839844 C 341.332031 169.945312 342.25 180.652344 343.433594 187.550781 C 343.171875 180.453125 343.042969 172.113281 340.542969 166.59375 Z M 263.625 225.027344 C 263.984375 224.203125 265.035156 222.46875 264.972656 221.644531 C 264.902344 221.253906 263.917969 220.234375 263.425781 219.640625 C 259.648438 215.007812 254.816406 210.183594 249.722656 207.6875 C 249.59375 207.714844 249.53125 207.816406 249.53125 207.980469 C 249.296875 209.851562 250.25 213.039062 250.777344 215.042969 C 252.582031 221.777344 255.476562 227.65625 257.972656 233.238281 C 260.304688 231.039062 262.113281 228.179688 263.625 225.027344 Z M 257.085938 197.042969 C 254.0625 197.863281 250.875 198.847656 248.96875 200.785156 C 251.402344 202.296875 254.488281 203.019531 257.578125 203.742188 C 260.765625 204.5 264.25 204.925781 267.929688 205.089844 C 267.894531 201.871094 267.730469 198.523438 267.269531 195.894531 C 267.207031 195.597656 267.371094 194.90625 266.875 194.839844 C 263.625 195.597656 260.269531 196.191406 257.085938 197.042969 Z M 245.324219 167.449219 C 246.011719 168.074219 245.683594 169.519531 245.683594 170.703125 C 245.683594 178.683594 245.488281 187.910156 246.929688 194.546875 C 250.25 191.066406 251.761719 184.726562 253.371094 179.144531 C 253.601562 178.253906 253.832031 177.171875 254.03125 176.152344 C 254.226562 175.167969 254.589844 174.019531 254.621094 173.199219 C 254.621094 172.347656 254.195312 171.390625 255.078125 171.195312 C 256.003906 170.964844 257.710938 172.933594 258.429688 173.691406 C 267.074219 182.59375 271.113281 201.609375 266.875 217.738281 C 266.515625 219.117188 266.121094 220.460938 266.019531 221.746094 C 265.003906 223.582031 264.316406 225.652344 263.328125 227.589844 C 260.171875 233.796875 253.140625 242.304688 243.582031 238.230469 C 242.726562 237.871094 241.902344 237.476562 241.085938 236.984375 C 240.425781 236.554688 239.40625 236.199219 239.277344 235.339844 C 240.132812 235.507812 240.359375 236.261719 241.179688 236.425781 C 242.5625 227.261719 244.371094 217.570312 243.679688 206.996094 C 242.234375 207.980469 241.445312 209.753906 240.425781 211.328125 C 237.929688 215.175781 235.628906 219.410156 233.824219 224.140625 C 233.558594 224.863281 233.492188 226.34375 232.378906 226.34375 C 231.6875 226.011719 232.3125 225.289062 232.472656 224.925781 C 234.808594 219.640625 237.4375 214.976562 240.328125 210.082031 C 240.886719 209.097656 242.5625 205.351562 244.074219 205.585938 C 244.992188 205.683594 245.324219 207.320312 245.324219 208.539062 C 245.324219 213.464844 244.566406 218.390625 243.972656 223.089844 C 243.386719 227.984375 242.957031 232.515625 241.773438 236.6875 C 246.605469 239.972656 254.589844 237.277344 257.382812 233.929688 C 256.65625 233.535156 256.625 232.382812 256.230469 231.429688 C 253.601562 224.796875 250.316406 218.261719 248.773438 210.34375 C 248.507812 209.097656 248.246094 207.289062 248.96875 206.832031 C 250.316406 205.910156 253.175781 208.210938 254.128906 208.933594 C 258.53125 212.152344 261.75 216.523438 265.332031 220.429688 C 266.875 216.421875 267.566406 211.59375 267.929688 206.4375 C 262.835938 205.289062 257.285156 204.402344 252.027344 203.089844 C 250.777344 202.757812 248.046875 202.167969 247.886719 200.785156 C 247.722656 199.046875 250.382812 198.15625 251.335938 197.730469 C 256.003906 195.632812 261.519531 195.074219 266.976562 193.988281 C 265.167969 185.054688 262.015625 177.46875 255.476562 173.296875 C 253.867188 179.273438 252.617188 185.578125 250.285156 191.195312 C 249.921875 192.117188 248.476562 195.660156 247.128906 195.695312 C 245.386719 195.765625 244.960938 192.148438 244.828125 190.144531 C 244.5 185.121094 244.730469 180.191406 244.730469 175.105469 C 244.730469 172.574219 244.894531 169.816406 245.027344 167.746094 C 244.992188 167.515625 245.089844 167.449219 245.324219 167.449219 Z M 309.128906 179.703125 C 309.261719 184.398438 308.476562 189.390625 308.082031 194.449219 C 307.6875 199.375 307.289062 204.925781 308.179688 209.6875 C 309.230469 208.964844 309.492188 207.519531 309.886719 206.238281 C 312.777344 197.042969 313.570312 181.964844 313.4375 172.347656 C 313.535156 172.179688 313.601562 172.015625 313.929688 172.050781 C 319.351562 179.171875 316.394531 198.71875 312.976562 207.6875 C 312.550781 208.832031 311.53125 211.429688 308.902344 211.5625 C 307.0625 211.429688 306.929688 205.351562 306.929688 203.449219 C 306.929688 197.503906 307.261719 192.410156 307.882812 187.089844 C 308.179688 184.496094 308.375 181.933594 309.128906 179.703125 Z M 138.46875 200.394531 C 137.121094 198.949219 136.136719 199.375 134.265625 199.40625 C 110.410156 198.882812 82.28125 199.40625 56.160156 200.261719 C 53.628906 203.875 51.039062 208.011719 48.539062 211.527344 C 48.140625 212.050781 47.683594 212.085938 47.785156 212.511719 C 51.039062 212.316406 55.898438 212.679688 60.007812 212.578125 C 89.28125 211.957031 118.917969 211.492188 148.359375 211.136719 C 148.195312 209.816406 139.519531 201.542969 138.46875 200.394531 Z M 17.359375 189.195312 C 11.738281 188.832031 12.824219 194.90625 13.347656 198.523438 C 19.820312 198.15625 32.242188 199.011719 39.339844 199.40625 C 39.765625 199.441406 42.230469 199.242188 42.199219 200.132812 C 42.199219 200.625 41.507812 200.625 41.046875 200.691406 C 34.871094 201.578125 20.445312 202.101562 14.238281 201.90625 C 14.828125 204.207031 15.8125 206.144531 16.699219 208.144531 C 22.710938 208.734375 28.660156 208.734375 34.902344 208.832031 C 35.988281 208.867188 40.785156 208.441406 40.488281 209.785156 C 40.324219 210.378906 38.910156 210.34375 38.089844 210.414062 C 31.386719 210.871094 23.300781 210.902344 18.242188 211.429688 C 18.667969 212.910156 19.394531 214.089844 20.050781 215.304688 C 25.605469 216.324219 33.257812 216.289062 39.140625 215.894531 C 40.652344 215.796875 42.722656 215.5 43.839844 214.910156 C 45.023438 214.285156 45.976562 212.707031 46.992188 211.429688 C 50.050781 207.519531 51.5625 204.433594 54.320312 200.460938 C 46.992188 196.550781 25.175781 189.6875 17.359375 189.195312 Z M 198.074219 192.511719 C 189.894531 181.574219 151.710938 194.21875 140.078125 199.34375 C 140.539062 200.820312 151.21875 212.152344 152.464844 213.300781 C 153.1875 213.957031 154.175781 215.175781 154.863281 215.335938 C 155.851562 215.601562 157.359375 215.46875 158.710938 215.5 C 172.707031 216.0625 186.378906 215.140625 196.628906 215.535156 C 197.054688 214.617188 197.085938 213.300781 197.21875 212.085938 C 183.945312 211.527344 170.113281 211.492188 156.609375 210.507812 C 155.816406 210.445312 154.800781 210.476562 154.109375 209.984375 C 154.636719 209.394531 155.621094 209.554688 156.3125 209.523438 C 161.636719 209.292969 190.515625 207.488281 197.910156 207.488281 C 198.171875 205.324219 198.367188 204.105469 198.664062 201.972656 C 193.410156 201.34375 147.472656 201.738281 146.914062 200.65625 C 147.046875 200.066406 147.800781 200.328125 148.164062 200.292969 C 164.984375 199.800781 182.496094 198.324219 199.222656 198.617188 C 200.042969 194.972656 199.746094 194.746094 198.074219 192.511719 Z M 149.507812 212.28125 C 132.882812 212.839844 115.960938 212.839844 98.546875 213.203125 C 82.910156 213.53125 66.410156 213.894531 50.347656 213.859375 C 49.292969 213.859375 47.519531 213.925781 46.730469 214.058594 C 45.777344 214.253906 45.253906 215.863281 44.101562 216.261719 C 42.394531 216.847656 40.027344 217.015625 37.992188 217.113281 C 33.589844 217.375 29.054688 217.539062 24.386719 217.082031 C 21.726562 216.847656 19.296875 216.621094 17.785156 215.273438 C 14.957031 212.742188 11.835938 202.398438 11.246094 199.539062 C 10.519531 195.894531 9.832031 190.34375 11.835938 187.386719 C 12.164062 186.894531 13.941406 185.515625 14.792969 185.351562 C 16.402344 184.957031 18.933594 185.546875 20.9375 185.910156 C 25.503906 186.730469 53.304688 195.632812 57.539062 198.0625 C 84.21875 196.910156 111.230469 197.074219 137.910156 196.222656 C 144.679688 193.269531 152.070312 190.902344 159.859375 188.898438 C 167.582031 186.894531 175.796875 184.890625 184.570312 184.496094 C 188.804688 184.332031 194.722656 184.628906 198.238281 187.386719 C 199.945312 188.734375 201.128906 191.390625 201.160156 193.496094 C 201.585938 195.730469 199.484375 212.316406 199.222656 213.464844 C 198.925781 214.8125 198.730469 216.488281 197.875 216.980469 C 197.25 217.375 162.785156 216.847656 159.761719 216.6875 C 157.953125 216.585938 155.917969 216.621094 154.570312 216.191406 C 152.566406 215.570312 151.21875 213.433594 149.507812 212.28125 Z M 232.378906 183.347656 C 232.472656 183.347656 232.574219 183.347656 232.671875 183.347656 C 236.121094 187.910156 239.835938 192.9375 242.628906 198.585938 C 242.957031 199.242188 243.777344 200.492188 243.582031 201.152344 C 243.253906 202.367188 241.378906 201.578125 240.523438 201.246094 C 238.09375 200.394531 236.546875 199.671875 234.382812 198.785156 C 233.429688 198.355469 232.148438 198.261719 231.71875 197.242188 C 232.671875 196.878906 233.527344 197.667969 234.28125 197.996094 C 236.746094 199.113281 239.375 200.328125 242.53125 200.886719 C 240.03125 194.613281 235.792969 189.226562 232.277344 183.640625 C 232.246094 183.480469 232.378906 183.480469 232.378906 183.347656 Z M 215.519531 222.136719 C 215.457031 223.417969 46.5 226.933594 21.199219 226.933594 C 19.230469 226.933594 17.09375 227.195312 15.1875 226.539062 C 16.667969 225.75 18.800781 225.914062 20.9375 225.878906 C 26.949219 225.785156 33.292969 225.390625 39.503906 225.390625 C 60.890625 225.390625 212.265625 220.691406 215.519531 222.136719 Z M 292.078125 230.839844 C 292.144531 230.839844 292.210938 230.839844 292.273438 230.839844 C 293.230469 231.824219 293.554688 233.238281 294.082031 234.390625 C 295.167969 236.785156 296.746094 238.789062 298.386719 240.726562 C 299.175781 241.613281 300.292969 242.4375 300.492188 243.6875 C 299.113281 243.78125 298.257812 242.4375 297.433594 241.582031 C 295.039062 239.019531 293.164062 234.882812 291.980469 231.132812 C 292.011719 231.070312 292.078125 230.972656 292.078125 230.839844 Z M 317.9375 231.039062 C 318.003906 231.039062 318.035156 231.070312 318.035156 231.132812 C 319.121094 235.179688 320.402344 239.019531 322.636719 241.875 C 323.027344 242.402344 323.785156 242.699219 323.785156 243.488281 C 322.40625 243.6875 321.648438 242.46875 320.996094 241.582031 C 319.152344 239.085938 317.773438 235.246094 317.542969 231.335938 C 317.738281 231.300781 317.738281 231.070312 317.9375 231.039062 Z M 310.742188 233.335938 C 310.839844 233.335938 310.9375 233.335938 311.039062 233.335938 C 311.921875 235.144531 312.582031 236.949219 313.4375 238.726562 C 314.257812 240.433594 315.671875 241.582031 316.789062 243.027344 C 315.835938 243.453125 314.878906 242.566406 314.390625 242.074219 C 312.550781 240.171875 311.53125 236.589844 310.742188 233.632812 C 310.742188 233.535156 310.742188 233.4375 310.742188 233.335938 Z M 301.539062 233.4375 C 301.703125 233.40625 301.703125 233.535156 301.835938 233.535156 C 302.726562 235.601562 303.644531 237.507812 304.828125 239.183594 C 305.980469 240.855469 307.75 241.808594 308.9375 243.386719 C 307.128906 243.453125 305.417969 241.679688 304.53125 240.433594 C 303.183594 238.5625 302.296875 236.0625 301.539062 233.734375 C 301.378906 233.667969 301.539062 233.566406 301.539062 233.4375 Z M 217.328125 233.832031 C 217.425781 233.796875 217.425781 233.863281 217.425781 233.929688 C 219.429688 236.128906 221.007812 238.695312 223.175781 240.726562 C 224.917969 242.335938 227.117188 243.320312 228.929688 244.933594 C 227.28125 245.359375 225.902344 243.914062 224.621094 243.125 C 222.253906 241.613281 220.808594 239.707031 219.167969 237.277344 C 218.378906 236.097656 217.558594 235.144531 217.328125 233.832031 Z M 205.828125 234.027344 C 205.925781 234.058594 205.992188 234.128906 206.121094 234.128906 C 208.128906 237.183594 210.195312 240.203125 213.023438 242.4375 C 213.941406 243.191406 215.226562 243.617188 215.71875 244.832031 C 214.371094 244.996094 213.449219 243.78125 212.5625 243.027344 C 211.644531 242.207031 210.824219 241.351562 210.066406 240.433594 C 208.523438 238.59375 206.910156 236.425781 205.925781 234.292969 C 205.828125 234.292969 205.859375 234.128906 205.828125 234.027344 Z M 33.488281 234.390625 C 33.589844 234.390625 33.6875 234.390625 33.753906 234.390625 C 35.492188 236.460938 37.402344 238.660156 39.800781 240.433594 C 42.097656 242.140625 44.730469 244.042969 47.550781 244.636719 C 48.078125 244.769531 49.195312 244.570312 49.292969 245.230469 C 49.457031 246.277344 47.714844 245.6875 46.894531 245.425781 C 44.398438 244.570312 42.230469 243.058594 40.289062 241.679688 C 39.109375 240.824219 37.695312 239.808594 36.449219 238.625 C 35.359375 237.574219 33.457031 235.769531 33.488281 234.390625 Z M 25.734375 236.886719 C 28.988281 239.414062 31.945312 241.515625 35.890625 243.386719 C 36.839844 243.847656 37.925781 244.339844 38.945312 244.539062 C 40.621094 244.898438 42.886719 244.472656 44.300781 245.324219 C 43.972656 246.34375 42.691406 246.082031 41.902344 246.082031 C 38.550781 246.082031 36.578125 245.359375 34.539062 244.273438 C 30.925781 242.304688 28.199219 240.039062 25.800781 237.183594 C 25.769531 237.113281 25.703125 237.015625 25.734375 236.886719 Z M 13.085938 230.9375 C 13.578125 230.382812 14.105469 230.316406 14.792969 230.28125 C 19.035156 229.953125 23.335938 230.152344 27.640625 229.988281 C 82.316406 227.949219 140.902344 227.984375 195.410156 227.984375 C 204.019531 227.984375 210.789062 227.820312 219.234375 227.492188 C 222.882812 224.308594 224.261719 219.210938 224.523438 212.742188 C 225.046875 199.769531 224.359375 185.285156 226.722656 173.789062 C 228.335938 165.808594 231.554688 153.753906 245.617188 153.457031 C 250.84375 153.523438 253.769531 157.5625 255.476562 161.503906 C 256.035156 162.816406 256.855469 164.359375 256.625 165.902344 C 278.738281 178.847656 282.8125 230.121094 258.992188 242.105469 C 258.238281 242.5 257.25 242.863281 256.296875 243.160156 C 255.34375 243.453125 252.8125 243.617188 252.121094 243.585938 C 251.335938 243.554688 251.300781 243.125 250.679688 243.027344 C 248.9375 242.761719 247.488281 243.222656 246.078125 243.027344 C 239.574219 242.074219 234.875 238.398438 231.128906 234.390625 C 229.679688 232.84375 228.105469 231.132812 227.382812 228.933594 C 228.074219 228.804688 228.433594 229.625 228.730469 229.988281 C 231.324219 233.304688 234.050781 236.390625 237.832031 238.726562 C 242.101562 241.320312 248.542969 242.699219 254.226562 240.824219 C 263.722656 237.9375 268.324219 229.625 270.851562 220.855469 C 278.507812 194.351562 259.152344 153.65625 234.773438 166.691406 C 234.480469 166.925781 233.855469 167.515625 233.625 167.546875 C 232.902344 167.613281 232.96875 167.121094 232.574219 167.054688 C 230.074219 176.1875 228.929688 187.351562 228.929688 199.242188 C 228.929688 205.289062 229.222656 211.296875 228.464844 216.488281 C 227.710938 221.445312 225.414062 227.851562 221.171875 230.414062 C 211.347656 230.28125 201.195312 230.214844 191.273438 230.316406 C 192.191406 233.5 201.128906 242.007812 204.019531 243.585938 C 204.777344 244.011719 205.859375 244.210938 206.320312 245.128906 C 200.703125 244.304688 192.453125 235.273438 189.921875 230.316406 C 140.410156 231.070312 90.5625 230.839844 41.34375 231.628906 C 44.628906 237.707031 50.082031 243.058594 59.152344 243.488281 C 67.234375 243.914062 73.707031 239.910156 77.257812 235.441406 C 77.550781 235.078125 77.878906 234.78125 78.144531 234.390625 C 78.304688 234.09375 78.277344 233.5 78.800781 233.4375 C 79.523438 233.703125 78.539062 234.191406 78.40625 234.488281 C 74.132812 240.171875 67.957031 245.390625 57.804688 244.375 C 48.867188 243.453125 43.183594 238.230469 39.996094 231.628906 C 33.882812 231.726562 27.246094 231.992188 20.839844 231.992188 C 18.667969 231.992188 16.371094 231.726562 14.402344 231.890625 C 13.773438 231.957031 13.871094 232.253906 13.347656 232.1875 C 10.519531 231.167969 7.796875 228.3125 6.28125 225.683594 C 5.695312 224.699219 5.328125 223.679688 5.695312 222.335938 C 6.148438 220.625 7.796875 218.949219 8.089844 217.34375 C 8.417969 215.4375 7.664062 212.644531 7.335938 210.445312 C 6.347656 204.269531 5.855469 197.175781 6.546875 190.046875 C 7.464844 180.917969 9.011719 173.824219 12.265625 167.546875 C 7.136719 172.375 4.019531 178.910156 1.683594 186.894531 C -0.714844 194.972656 -1.144531 205.421875 1.089844 214.386719 C 3.097656 222.46875 7.136719 229.195312 12.035156 234.585938 C 16.335938 239.347656 22.875 243.585938 30.597656 245.230469 C 31.125 245.324219 31.878906 245.324219 31.84375 245.886719 C 31.816406 246.707031 29.347656 245.949219 28.789062 245.785156 C 21.070312 243.816406 15.78125 239.679688 11.046875 234.980469 C 5.789062 229.691406 1.683594 221.90625 -0.253906 213.632812 C -2.457031 204.003906 -1.503906 193.199219 1.289062 185.1875 C 3.753906 178.027344 6.21875 172.210938 11.210938 167.546875 C 11.871094 166.957031 13.019531 166.203125 13.414062 165.445312 C 14.726562 162.980469 15.878906 160.648438 17.519531 158.449219 C 19.097656 156.28125 20.839844 153.554688 22.285156 151.289062 C 25.667969 146 29.644531 142.160156 35.59375 140.878906 C 42.523438 136.707031 50.148438 133.816406 59.578125 131.84375 C 72.261719 129.148438 76.699219 133.027344 81.199219 134.507812 C 84.648438 135.523438 86.390625 135.0625 89.742188 135.03125 C 96.015625 134.996094 103.902344 134.507812 110.902344 134.011719 C 131.371094 132.664062 151.84375 130.53125 173.859375 131.546875 C 180.65625 131.84375 184.109375 132.699219 190.21875 130.398438 C 203.953125 125.210938 218.410156 126.523438 232.871094 127.902344 C 234.050781 120.148438 239.835938 101.855469 248.210938 96.667969 C 216.933594 93.054688 160.714844 91.34375 133.769531 99.949219 C 113.957031 106.289062 99.828125 116.507812 82.910156 130.003906 C 83.039062 129.382812 83.628906 128.988281 84.058594 128.5625 C 87.113281 125.539062 90.859375 122.746094 94.410156 120.054688 C 104 112.824219 114.15625 106.714844 125.164062 100.675781 C 152.925781 85.433594 239.636719 86.351562 268.226562 94.171875 C 272.167969 95.253906 279.035156 98.703125 282.289062 100.707031 C 295.101562 108.492188 301.539062 115.714844 309.789062 128.101562 C 326.054688 129.347656 335.550781 140.910156 340.644531 155 C 343.894531 163.933594 345.832031 174.179688 345.046875 186.335938 C 344.945312 187.878906 344.585938 189.355469 344.488281 190.835938 C 344.914062 202.628906 346.65625 220.722656 339.984375 238.460938 C 338.867188 241.089844 335.058594 243.386719 331.734375 242.734375 C 325.757812 241.515625 322.929688 222.007812 324.246094 221.746094 C 325.261719 228.804688 327.105469 235.246094 328.847656 238.429688 C 329.601562 239.742188 330.554688 241.582031 332.199219 241.582031 C 334.726562 241.582031 337.125 237.210938 337.945312 234.980469 C 342.972656 221.28125 343.269531 200.132812 341.132812 182.296875 C 340.542969 177.601562 339.457031 172.242188 337.292969 168.601562 C 336.632812 167.449219 335.351562 165.9375 334.132812 165.902344 C 332.164062 165.902344 330.914062 168.894531 330.09375 170.703125 C 326.152344 179.5 325.132812 198.949219 323.394531 209.199219 C 323.097656 210.96875 322.832031 213.203125 322.242188 214.679688 C 320.863281 218.097656 313.042969 226.507812 310.480469 228.636719 C 309.425781 229.496094 308.210938 230.644531 307.128906 230.839844 C 305.777344 231.105469 304.007812 230.515625 302.59375 230.183594 C 290.597656 227.261719 285.605469 228.375 273.875 231.429688 C 273.347656 231.5625 272.527344 232.058594 271.9375 231.429688 C 271.9375 229.855469 273.417969 227.359375 274.464844 226.933594 C 278.902344 225.160156 290.5 223.910156 300.851562 226.671875 C 302.199219 227.066406 305.585938 227.292969 306.996094 227.128906 C 309.757812 226.832031 319.679688 215.894531 320.46875 214.089844 C 321.089844 212.644531 321.355469 209.625 321.617188 207.6875 C 323.261719 195.234375 323.882812 179.570312 328.191406 167.878906 C 329.207031 164.953125 330.6875 161.832031 332.492188 160.585938 C 334.890625 158.972656 338.441406 160.519531 340.839844 165.152344 C 343.402344 170.207031 343.238281 177.46875 344.089844 184.203125 C 344.71875 175.167969 343.269531 165.414062 340.644531 157.695312 C 338.539062 151.484375 332.558594 138.25 324.9375 137.363281 C 320.304688 136.839844 315.902344 138.546875 312.679688 140.058594 C 309.394531 141.601562 305.910156 143.242188 302.035156 144.257812 C 297.996094 145.34375 293.066406 146.035156 288.625 145.410156 C 285.40625 144.980469 282.15625 144.328125 279.230469 143.601562 C 278.3125 143.375 277.226562 143.339844 276.535156 142.648438 C 278.277344 142.617188 280.117188 143.140625 282.089844 143.40625 C 284.0625 143.667969 286.066406 143.898438 288.039062 144.097656 C 292.011719 144.421875 296.121094 143.765625 299.636719 142.648438 C 306.46875 140.484375 311.890625 136.871094 318.890625 135.359375 C 319.023438 135.328125 319.085938 135.292969 319.1875 135.257812 C 321.058594 135.0625 322.734375 135.160156 324.277344 135.457031 C 320.996094 133.09375 317.347656 130.992188 310.28125 129.941406 C 301.640625 128.660156 295.660156 130.761719 288.433594 131.910156 C 289.054688 131.023438 290.371094 130.792969 291.390625 130.5 C 294.640625 129.480469 298.484375 128.660156 302.230469 128.101562 C 298.386719 121.105469 285.933594 108.523438 278.640625 105.109375 C 256.492188 94.695312 254.09375 113.777344 249.988281 131.089844 C 252.484375 132.4375 259.023438 135.589844 261.683594 132.5 C 263.164062 130.824219 263.460938 127.210938 264.9375 125.703125 C 267.597656 122.976562 278.574219 119.59375 285.964844 119.988281 C 287.90625 120.121094 290.007812 121.335938 290.238281 123.011719 C 290.863281 127.476562 283.667969 136.246094 276.800781 136.539062 C 272.300781 136.871094 267.632812 136.113281 264.414062 137.199219 C 263.066406 137.921875 261.027344 140.484375 259.714844 141.269531 C 259.714844 141.269531 260.535156 138.121094 263.328125 135.949219 C 264.710938 135.195312 266.316406 135.359375 268.226562 135.257812 C 271.871094 135.097656 276.078125 135.421875 278.835938 134.308594 C 281.890625 133.09375 289.449219 125.175781 287.773438 122.878906 C 285.046875 119.132812 270.128906 123.796875 266.480469 127.082031 C 264.414062 128.921875 265.101562 134.867188 258.828125 136.179688 C 257.3125 136.507812 255.476562 136.082031 253.996094 135.816406 C 236.617188 132.601562 228.730469 140.320312 218.476562 153.523438 C 213.121094 160.453125 204.710938 168.863281 192.160156 171.457031 C 186.933594 172.507812 181.214844 172.441406 176.914062 170.40625 C 174.449219 169.289062 172.773438 167.222656 172.707031 164.195312 C 172.609375 161.207031 173.890625 158.710938 175.269531 156.445312 C 177.964844 152.042969 181.546875 148.761719 185.523438 146 C 189.496094 143.242188 194.292969 140.777344 199.421875 139.105469 C 204.972656 137.265625 212.660156 136.210938 216.867188 139.167969 C 219.5625 141.074219 221.4375 145.246094 218.476562 149.84375 C 219.070312 149.613281 219.296875 149.023438 219.628906 148.59375 C 225.246094 141.632812 232.574219 133.816406 241.476562 132.011719 C 227.546875 130.398438 202.773438 128.625 189.5625 133.652344 C 176.191406 138.742188 164.492188 146.429688 153.914062 154.507812 C 147.636719 159.304688 141.789062 164.265625 136.003906 169.554688 C 135.183594 170.308594 134.527344 171.328125 133.410156 171.65625 C 133.636719 170.339844 134.855469 169.519531 135.710938 168.601562 C 138.304688 165.773438 141.230469 162.980469 144.152344 160.355469 C 155.753906 149.941406 168.667969 141.042969 183.515625 133.816406 C 156.609375 132.335938 130.121094 134.800781 104.660156 136.609375 C 100.484375 136.902344 96.148438 137.101562 91.644531 137.363281 C 88.425781 137.59375 85.207031 137.886719 82.25 138.347656 C 81.164062 138.511719 80.046875 138.414062 79.195312 138.707031 C 77.648438 139.238281 75.746094 141.074219 74.398438 142.257812 C 68.253906 147.609375 48.308594 177.105469 47.550781 177.304688 C 52.152344 167.054688 67.234375 141.535156 77.355469 135.753906 C 74.003906 135.753906 72.03125 133.554688 60.890625 134.832031 C 51.988281 136.507812 44.464844 138.511719 37.695312 141.796875 C 44.265625 142.386719 47.125 147.511719 47.390625 153.753906 C 47.714844 162.753906 43.414062 170.113281 38.84375 174.347656 C 36.578125 176.480469 33.292969 178.15625 29.347656 178.191406 C 22.054688 178.191406 18.441406 170.832031 20.25 162.097656 C 20.476562 159.53125 21.101562 157.464844 21.992188 155.199219 C 21.992188 155.101562 22.089844 155.101562 22.089844 155 C 16.929688 162.457031 11.671875 170.898438 9.140625 181.242188 C 7.203125 189.195312 6.648438 198.75 8.089844 207.582031 C 8.320312 209.03125 8.453125 210.507812 8.679688 211.890625 C 8.84375 213.238281 8.976562 214.679688 9.636719 215.832031 C 9.832031 219.050781 7.464844 220.957031 7.695312 223.777344 C 7.828125 225.191406 9.140625 226.734375 9.996094 227.785156 C 10.984375 229.003906 12.035156 229.988281 13.085938 230.9375 " fill-opacity="1" fill-rule="evenodd"/><g fill="#ffffff" fill-opacity="1"><g transform="translate(55.547442, 211.563403)"><g><path d="M 3.5 -10.207031 C 1.867188 -10.164062 0.582031 -8.863281 0.582031 -7.289062 L 0.582031 -2.917969 C 0.582031 -1.269531 1.9375 0 3.5 0 L 7.875 0 C 9.507812 0 10.789062 -1.371094 10.789062 -2.917969 L 9.332031 -2.917969 C 9.332031 -2.113281 8.675781 -1.457031 7.875 -1.457031 L 3.5 -1.457031 C 2.699219 -1.457031 2.042969 -2.113281 2.042969 -2.917969 L 2.042969 -7.289062 C 2.042969 -8.09375 2.699219 -8.75 3.5 -8.75 L 7.875 -8.75 C 8.675781 -8.75 9.332031 -8.09375 9.332031 -7.289062 L 10.789062 -7.289062 C 10.746094 -8.910156 9.433594 -10.207031 7.875 -10.207031 Z M 3.5 -10.207031 "/></g></g></g><g fill="#ffffff" fill-opacity="1"><g transform="translate(68.055419, 211.563403)"><g><path d="M 8.019531 -8.75 C 8.820312 -8.75 9.476562 -8.09375 9.476562 -7.289062 L 9.476562 -4.375 L 2.1875 -4.375 L 2.1875 -7.289062 C 2.1875 -8.09375 2.84375 -8.75 3.644531 -8.75 Z M 10.9375 -7.289062 C 10.890625 -8.910156 9.578125 -10.207031 8.019531 -10.207031 L 3.644531 -10.207031 C 2.011719 -10.207031 0.730469 -8.835938 0.730469 -7.289062 L 0.730469 0 L 2.1875 0 L 2.1875 -2.917969 L 9.476562 -2.917969 L 9.476562 0 L 10.9375 0 Z M 10.9375 -7.289062 "/></g></g></g><g fill="#ffffff" fill-opacity="1"><g transform="translate(81.000722, 211.563403)"><g><path d="M 9.476562 -5.832031 C 9.476562 -5.03125 8.820312 -4.375 8.019531 -4.375 L 2.1875 -4.375 L 2.1875 -8.75 L 8.019531 -8.75 C 8.820312 -8.75 9.476562 -8.09375 9.476562 -7.289062 Z M 10.9375 0 L 10.9375 -1.035156 L 8.910156 -3.0625 C 10.117188 -3.46875 10.9375 -4.59375 10.9375 -5.832031 L 10.9375 -7.289062 C 10.9375 -8.910156 9.550781 -10.207031 8.019531 -10.207031 L 0.730469 -10.207031 L 0.730469 0 L 2.1875 0 L 2.1875 -2.917969 L 6.984375 -2.917969 L 9.898438 0 Z M 10.9375 0 "/></g></g></g><g fill="#ffffff" fill-opacity="1"><g transform="translate(93.800245, 211.563403)"><g><path d="M 2.1875 -10.207031 L 0.730469 -10.207031 L 0.730469 0 L 2.1875 0 L 2.1875 -4.375 L 9.476562 -4.375 L 9.476562 0 L 10.9375 0 L 10.9375 -10.207031 L 9.476562 -10.207031 L 9.476562 -5.832031 L 2.1875 -5.832031 Z M 2.1875 -10.207031 "/></g></g></g><g fill="#ffffff" fill-opacity="1"><g transform="translate(106.74555, 211.563403)"><g><path d="M 9.476562 -2.917969 C 9.476562 -2.113281 8.820312 -1.457031 8.019531 -1.457031 L 3.644531 -1.457031 C 2.84375 -1.457031 2.1875 -2.113281 2.1875 -2.917969 L 2.1875 -10.207031 L 0.730469 -10.207031 L 0.730469 -2.917969 C 0.730469 -1.269531 2.085938 0 3.644531 0 L 8.019531 0 C 9.652344 0 10.9375 -1.371094 10.9375 -2.917969 L 10.9375 -10.207031 L 9.476562 -10.207031 Z M 9.476562 -2.917969 "/></g></g></g><g fill="#ffffff" fill-opacity="1"><g transform="translate(119.690855, 211.563403)"><g><path d="M 8.019531 0 C 9.652344 -0.0429688 10.9375 -1.339844 10.9375 -2.917969 C 10.9375 -3.789062 10.601562 -4.519531 9.945312 -5.101562 C 10.601562 -5.6875 10.9375 -6.414062 10.9375 -7.289062 C 10.9375 -8.910156 9.550781 -10.207031 8.019531 -10.207031 L 0.730469 -10.207031 L 0.730469 0 Z M 8.019531 -4.375 C 8.820312 -4.375 9.476562 -3.71875 9.476562 -2.917969 C 9.476562 -2.113281 8.820312 -1.457031 8.019531 -1.457031 L 2.1875 -1.457031 L 2.1875 -4.375 Z M 2.1875 -8.75 L 8.019531 -8.75 C 8.820312 -8.75 9.476562 -8.09375 9.476562 -7.289062 C 9.476562 -6.488281 8.820312 -5.832031 8.019531 -5.832031 L 2.1875 -5.832031 Z M 2.1875 -8.75 "/></g></g></g></svg>