<svg xmlns="http://www.w3.org/2000/svg" xmlns:xlink="http://www.w3.org/1999/xlink" width="700" zoomAndPan="magnify" viewBox="0 0 525 89.999999" height="120" preserveAspectRatio="xMidYMid meet" version="1.0"><defs><g/><clipPath id="4e68d3ff94"><path d="M 302.382812 86.230469 L 516.019531 86.230469 L 516.019531 90 L 302.382812 90 Z M 302.382812 86.230469 " clip-rule="nonzero"/></clipPath></defs><path fill="#ffffff" d="M 309.066406 81.574219 C 309.066406 81.574219 304.1875 76.558594 303.941406 73.65625 C 303.695312 70.75 305.449219 59.191406 305.449219 59.191406 C 305.449219 59.191406 307.917969 39.488281 315.605469 33.171875 C 323.292969 26.835938 333.769531 23.441406 339.082031 24.007812 C 344.394531 24.589844 347.070312 25.15625 347.070312 25.15625 C 347.070312 25.15625 371.246094 13.203125 397.496094 8.886719 C 423.761719 4.566406 448.460938 0.816406 455.226562 2.34375 C 461.972656 3.890625 471.976562 12.257812 474.597656 15.691406 C 477.214844 19.125 479.34375 22.875 479.34375 22.875 C 479.34375 22.875 488.597656 23.519531 492.535156 30.023438 C 496.492188 36.527344 498.226562 43.597656 498.753906 49.425781 C 499.28125 55.25 498.207031 58.476562 498.207031 58.476562 C 498.207031 58.476562 497.960938 78.933594 496.378906 82.347656 C 494.796875 85.761719 491.648438 87.628906 491.648438 87.628906 C 491.648438 87.628906 485.207031 87.796875 482.320312 87.742188 C 479.421875 87.664062 473.863281 87.496094 473.769531 86.25 C 473.691406 85.007812 470.261719 78.859375 470.261719 78.859375 C 470.261719 78.859375 459.710938 78.707031 457.808594 79.6875 C 455.90625 80.6875 452.082031 84.726562 449.839844 86.082031 C 447.613281 87.4375 422.308594 86.289062 422.308594 86.289062 L 414.359375 79.554688 L 339.328125 80.425781 L 309.066406 81.574219 " fill-opacity="1" fill-rule="evenodd"/><path fill="#020202" d="M 425.738281 41.75 C 425.738281 41.75 435.007812 28.570312 442.09375 27.875 C 449.175781 27.175781 459.21875 33.320312 468 31.871094 C 476.761719 30.417969 482.660156 26.421875 486.46875 26.570312 C 490.253906 26.742188 492.535156 30.023438 492.535156 30.023438 C 492.535156 30.023438 488.859375 27.628906 484.019531 29.378906 C 479.175781 31.117188 468.359375 38.355469 456.902344 35.753906 C 445.429688 33.171875 443.335938 30.476562 438.949219 31.964844 C 434.554688 33.472656 425.738281 41.75 425.738281 41.75 Z M 454.171875 49.085938 C 454.171875 49.085938 477.234375 43.75 477.328125 45.9375 C 477.441406 48.125 473.148438 61.398438 467.171875 66.1875 C 461.179688 70.976562 458.5625 70.957031 458.5625 70.957031 C 458.5625 70.957031 458.84375 61.453125 457.695312 58.058594 C 456.546875 54.667969 454.171875 49.085938 454.171875 49.085938 Z M 431.804688 74.222656 C 431.804688 74.222656 430.902344 64.925781 431.261719 60.984375 C 431.597656 57.042969 433.257812 50.59375 433.257812 50.59375 C 433.257812 50.59375 435.78125 46.765625 439.703125 45.523438 C 443.054688 44.464844 445.976562 46.292969 447.746094 47.523438 C 452.382812 50.707031 456.640625 60.816406 455.058594 70.355469 C 454.644531 72.824219 453.304688 75.863281 452.363281 77.917969 C 449.78125 83.515625 446.3125 86.476562 442.792969 85.554688 C 439.71875 84.742188 436.042969 81.96875 433.820312 78.917969 C 432.558594 77.179688 431.804688 74.351562 431.804688 74.222656 Z M 309.6875 43.789062 C 309.6875 43.789062 304.320312 54.515625 305.621094 63.339844 C 306.9375 72.183594 306.484375 73.105469 306.390625 73.277344 C 306.296875 73.449219 304.488281 76.105469 305.714844 77.726562 C 306.9375 79.347656 308.953125 80.820312 308.953125 80.820312 L 348.011719 80.3125 C 348.011719 80.3125 343.964844 87.363281 338.027344 88.476562 C 332.113281 89.589844 325.835938 89.570312 325.835938 89.570312 L 317.960938 89.097656 C 317.960938 89.097656 304.695312 84.726562 302.679688 73.484375 C 300.644531 62.246094 301.417969 52.953125 304.921875 48.707031 C 308.40625 44.464844 309.6875 43.789062 309.6875 43.789062 Z M 311.609375 71.863281 C 311.609375 71.863281 307.410156 62.679688 308.164062 59.34375 C 308.917969 55.988281 311.195312 55.136719 313.34375 55.988281 C 315.492188 56.835938 333.730469 62.285156 333.730469 62.285156 L 381.742188 61.4375 C 381.742188 61.4375 403.503906 54.402344 409.570312 55.402344 C 415.621094 56.402344 415.1875 58.078125 415.902344 60.4375 C 416.621094 62.796875 414.167969 72.015625 414.167969 72.015625 C 414.167969 72.015625 390.765625 72.75 390.050781 72.390625 C 389.355469 72.054688 387.148438 70.148438 387.148438 70.148438 L 328.644531 70.769531 C 328.644531 70.769531 326.988281 72.054688 326.402344 72.183594 C 325.835938 72.316406 314.039062 72.390625 313.324219 72.277344 C 312.589844 72.183594 311.609375 71.863281 311.609375 71.863281 Z M 492.269531 47.050781 C 494.34375 47.050781 495.832031 54.988281 495.585938 64.792969 C 495.324219 74.597656 493.4375 82.554688 491.367188 82.554688 C 489.292969 82.554688 487.804688 74.597656 488.070312 64.792969 C 488.3125 54.988281 490.199219 47.050781 492.269531 47.050781 Z M 410.34375 79.574219 C 410.34375 79.574219 412.753906 83.6875 415.242188 86.023438 C 417.730469 88.378906 418.464844 88.398438 418.464844 88.398438 L 445.183594 88.550781 L 446.824219 87.945312 C 446.824219 87.945312 439.363281 88.230469 436.042969 84.816406 C 432.710938 81.386719 431.109375 76.730469 431.109375 76.730469 C 431.109375 76.730469 428.640625 79.121094 427.433594 79.3125 C 426.246094 79.519531 410.34375 79.574219 410.34375 79.574219 Z M 346.035156 25.082031 C 346.035156 25.082031 347.355469 26.570312 350.671875 26.855469 C 353.96875 27.136719 377.992188 24.367188 386.507812 24.175781 C 395.027344 23.96875 408.820312 24.609375 408.820312 24.609375 C 408.820312 24.609375 414.09375 22.214844 421.632812 22.066406 C 429.148438 21.933594 436.929688 22.726562 436.929688 22.726562 C 436.929688 22.726562 446.730469 24.101562 447.894531 24.910156 C 449.066406 25.707031 451.457031 25.289062 452.4375 24.066406 C 453.417969 22.835938 452.984375 21.121094 454.679688 20.273438 C 456.375 19.425781 466.402344 16.238281 467.152344 18.425781 C 467.890625 20.632812 463.613281 24.515625 463.613281 24.515625 L 475.671875 22.214844 C 475.671875 22.214844 467.964844 11.996094 462.292969 9.207031 C 456.601562 6.398438 448.160156 5.300781 445.804688 14.789062 C 443.46875 24.289062 444.183594 23.214844 444.183594 23.214844 L 438.871094 22.574219 L 436.535156 21.878906 C 436.535156 21.878906 436.476562 14.882812 440.625 9.261719 C 444.769531 3.625 448.160156 1.625 448.160156 1.625 C 448.160156 1.625 420.273438 -1.335938 397.023438 1.589844 C 386.1875 2.945312 380.988281 3.738281 376.976562 4.925781 C 375.035156 5.488281 367.382812 9.261719 361.28125 13.355469 C 352.988281 18.898438 346.035156 25.082031 346.035156 25.082031 Z M 468.8125 78.425781 C 468.8125 78.425781 469.753906 83.214844 471.808594 86.15625 C 473.84375 89.097656 474.503906 89.25 474.503906 89.25 L 492.402344 88.550781 C 492.402344 88.550781 488.671875 84.707031 488.105469 80.707031 C 487.542969 76.707031 486.597656 69.960938 486.597656 69.960938 C 486.597656 69.960938 480.71875 79.707031 477.835938 80.066406 C 474.9375 80.425781 468.8125 78.425781 468.8125 78.425781 " fill-opacity="1" fill-rule="evenodd"/><g clip-path="url(#4e68d3ff94)"><path fill="#3955ff" d="M 509.699219 90.246094 L 302.773438 90.246094 C 302.773438 90.246094 500.203125 86.289062 506.894531 86.53125 C 515.089844 86.835938 521.15625 90.246094 509.699219 90.246094 " fill-opacity="1" fill-rule="evenodd"/></g><path fill="#3955ff" d="M 442.640625 36.832031 C 439.285156 36.566406 435.554688 40.902344 435.007812 43.75 C 436.703125 42.730469 438.796875 41.621094 441.492188 41.503906 C 443.5625 41.410156 445.503906 41.976562 446.859375 42.65625 C 447.371094 42.902344 447.820312 43.277344 448.234375 43.261719 C 447.800781 39.941406 445.957031 37.074219 442.640625 36.832031 Z M 315.550781 36.832031 C 314.398438 39.128906 313.0625 43.769531 314.398438 46.824219 C 315.191406 48.613281 317.433594 50.328125 320.164062 49.460938 C 321.109375 49.179688 322.277344 48.292969 323.085938 47.425781 C 324.78125 45.671875 325.894531 43.597656 326.703125 41.054688 C 327.984375 37.09375 328.15625 29.71875 322.257812 30.398438 C 319.414062 30.703125 316.644531 34.679688 315.550781 36.832031 Z M 414.394531 29.285156 C 412.285156 30.117188 410.476562 31.152344 408.949219 32.210938 C 407.425781 33.265625 405.765625 34.433594 404.390625 36 C 403.257812 37.300781 401.542969 39.300781 401.433594 41.394531 C 401.320312 43.523438 402.84375 45.125 404.238281 45.671875 C 406.386719 46.539062 409.667969 45.9375 411.699219 45.296875 C 416.355469 43.804688 421.253906 40.089844 424.402344 36.433594 C 427.605469 32.71875 427.472656 27.722656 421.328125 27.796875 C 418.523438 27.835938 416.449219 28.496094 414.394531 29.285156 Z M 462.800781 6.414062 C 447.464844 -2.765625 440.511719 7.714844 438.023438 22.085938 C 439.796875 22.214844 441.359375 22.554688 443.074219 22.742188 C 443.921875 19.085938 444.769531 15.445312 446.3125 12.355469 C 449.933594 5.1875 455.8125 4.90625 462.144531 8.679688 C 467.679688 11.976562 472.109375 16.730469 475.445312 21.761719 C 476.3125 21.6875 477.292969 21.707031 478.234375 21.707031 C 474.730469 15.542969 468.753906 9.976562 462.800781 6.414062 Z M 496.699219 43.917969 C 495.230469 40.636719 492.421875 39.941406 491.367188 43.578125 C 492.121094 42.371094 493.945312 42.65625 494.777344 43.484375 C 497.152344 45.84375 497.679688 51.988281 498.355469 55.949219 C 498.207031 51.875 498.132812 47.085938 496.699219 43.917969 Z M 452.589844 77.464844 C 452.796875 76.992188 453.398438 75.996094 453.363281 75.519531 C 453.324219 75.296875 452.757812 74.710938 452.476562 74.371094 C 450.308594 71.710938 447.539062 68.941406 444.617188 67.507812 C 444.542969 67.527344 444.507812 67.582031 444.507812 67.679688 C 444.375 68.75 444.917969 70.582031 445.222656 71.730469 C 446.257812 75.597656 447.914062 78.972656 449.347656 82.175781 C 450.6875 80.914062 451.722656 79.273438 452.589844 77.464844 Z M 448.839844 61.398438 C 447.105469 61.867188 445.277344 62.433594 444.183594 63.546875 C 445.578125 64.414062 447.351562 64.832031 449.121094 65.246094 C 450.949219 65.679688 452.949219 65.925781 455.058594 66.019531 C 455.039062 64.171875 454.945312 62.246094 454.679688 60.738281 C 454.644531 60.570312 454.738281 60.171875 454.453125 60.132812 C 452.589844 60.570312 450.667969 60.910156 448.839844 61.398438 Z M 442.09375 44.410156 C 442.488281 44.765625 442.300781 45.597656 442.300781 46.277344 C 442.300781 50.859375 442.1875 56.15625 443.015625 59.964844 C 444.917969 57.964844 445.785156 54.328125 446.710938 51.121094 C 446.839844 50.613281 446.972656 49.992188 447.085938 49.40625 C 447.199219 48.839844 447.40625 48.179688 447.425781 47.710938 C 447.425781 47.21875 447.179688 46.671875 447.6875 46.558594 C 448.21875 46.425781 449.195312 47.558594 449.613281 47.992188 C 454.566406 53.101562 456.882812 64.019531 454.453125 73.277344 C 454.246094 74.070312 454.019531 74.84375 453.964844 75.578125 C 453.378906 76.632812 452.984375 77.820312 452.421875 78.933594 C 450.609375 82.5 446.578125 87.382812 441.097656 85.042969 C 440.605469 84.835938 440.132812 84.613281 439.664062 84.328125 C 439.285156 84.082031 438.703125 83.875 438.628906 83.382812 C 439.117188 83.480469 439.25 83.914062 439.71875 84.007812 C 440.511719 78.746094 441.546875 73.183594 441.152344 67.113281 C 440.324219 67.679688 439.871094 68.695312 439.285156 69.601562 C 437.851562 71.808594 436.535156 74.238281 435.5 76.953125 C 435.347656 77.367188 435.308594 78.21875 434.671875 78.21875 C 434.273438 78.03125 434.632812 77.613281 434.726562 77.40625 C 436.0625 74.371094 437.570312 71.695312 439.230469 68.882812 C 439.550781 68.316406 440.511719 66.167969 441.378906 66.300781 C 441.90625 66.359375 442.09375 67.300781 442.09375 67.996094 C 442.09375 70.824219 441.660156 73.65625 441.320312 76.351562 C 440.984375 79.160156 440.738281 81.761719 440.058594 84.15625 C 442.828125 86.042969 447.40625 84.496094 449.007812 82.574219 C 448.59375 82.347656 448.574219 81.6875 448.347656 81.140625 C 446.839844 77.332031 444.957031 73.578125 444.074219 69.035156 C 443.921875 68.316406 443.769531 67.28125 444.183594 67.019531 C 444.957031 66.488281 446.597656 67.808594 447.144531 68.222656 C 449.667969 70.074219 451.515625 72.582031 453.570312 74.824219 C 454.453125 72.523438 454.851562 69.753906 455.058594 66.789062 C 452.136719 66.132812 448.953125 65.625 445.9375 64.867188 C 445.222656 64.679688 443.65625 64.339844 443.5625 63.546875 C 443.46875 62.546875 444.996094 62.039062 445.542969 61.792969 C 448.21875 60.589844 451.382812 60.265625 454.511719 59.644531 C 453.476562 54.515625 451.667969 50.160156 447.914062 47.765625 C 446.992188 51.195312 446.277344 54.816406 444.9375 58.039062 C 444.730469 58.570312 443.902344 60.605469 443.128906 60.625 C 442.132812 60.664062 441.886719 58.589844 441.8125 57.4375 C 441.621094 54.554688 441.753906 51.726562 441.753906 48.804688 C 441.753906 47.351562 441.847656 45.769531 441.925781 44.578125 C 441.90625 44.449219 441.960938 44.410156 442.09375 44.410156 Z M 478.683594 51.441406 C 478.761719 54.140625 478.308594 57.003906 478.082031 59.910156 C 477.855469 62.738281 477.628906 65.925781 478.140625 68.65625 C 478.742188 68.242188 478.890625 67.414062 479.117188 66.675781 C 480.777344 61.398438 481.230469 52.742188 481.152344 47.21875 C 481.210938 47.125 481.246094 47.03125 481.4375 47.050781 C 484.546875 51.140625 482.847656 62.359375 480.890625 67.507812 C 480.644531 68.167969 480.0625 69.65625 478.554688 69.734375 C 477.5 69.65625 477.421875 66.167969 477.421875 65.078125 C 477.421875 61.664062 477.613281 58.738281 477.96875 55.683594 C 478.140625 54.195312 478.25 52.722656 478.683594 51.441406 Z M 380.816406 63.324219 C 380.046875 62.492188 379.480469 62.738281 378.40625 62.757812 C 364.726562 62.453125 348.597656 62.757812 333.617188 63.246094 C 332.167969 65.320312 330.679688 67.695312 329.246094 69.714844 C 329.019531 70.015625 328.757812 70.035156 328.816406 70.277344 C 330.679688 70.167969 333.46875 70.375 335.824219 70.316406 C 352.613281 69.960938 369.605469 69.695312 386.492188 69.488281 C 386.394531 68.730469 381.421875 63.980469 380.816406 63.324219 Z M 311.367188 56.894531 C 308.144531 56.683594 308.765625 60.171875 309.066406 62.246094 C 312.777344 62.039062 319.902344 62.53125 323.972656 62.757812 C 324.214844 62.777344 325.628906 62.664062 325.609375 63.171875 C 325.609375 63.457031 325.214844 63.457031 324.949219 63.492188 C 321.410156 64 313.136719 64.300781 309.578125 64.191406 C 309.914062 65.511719 310.480469 66.621094 310.988281 67.773438 C 314.4375 68.109375 317.847656 68.109375 321.429688 68.167969 C 322.050781 68.1875 324.800781 67.941406 324.628906 68.714844 C 324.535156 69.054688 323.726562 69.035156 323.253906 69.074219 C 319.414062 69.339844 314.777344 69.355469 311.875 69.65625 C 312.117188 70.507812 312.535156 71.183594 312.910156 71.882812 C 316.097656 72.46875 320.484375 72.449219 323.859375 72.222656 C 324.722656 72.164062 325.910156 71.996094 326.554688 71.65625 C 327.230469 71.296875 327.777344 70.390625 328.363281 69.65625 C 330.113281 67.414062 330.980469 65.640625 332.5625 63.359375 C 328.363281 61.117188 315.851562 57.175781 311.367188 56.894531 Z M 415 58.796875 C 410.308594 52.519531 388.410156 59.777344 381.742188 62.71875 C 382.003906 63.566406 388.128906 70.074219 388.84375 70.730469 C 389.257812 71.109375 389.824219 71.808594 390.21875 71.902344 C 390.785156 72.054688 391.652344 71.976562 392.425781 71.996094 C 400.453125 72.316406 408.292969 71.789062 414.167969 72.015625 C 414.414062 71.488281 414.433594 70.730469 414.507812 70.035156 C 406.898438 69.714844 398.964844 69.695312 391.21875 69.128906 C 390.765625 69.089844 390.183594 69.109375 389.789062 68.828125 C 390.089844 68.488281 390.652344 68.582031 391.050781 68.5625 C 394.101562 68.429688 410.664062 67.394531 414.902344 67.394531 C 415.054688 66.152344 415.167969 65.453125 415.335938 64.226562 C 412.324219 63.867188 385.980469 64.09375 385.660156 63.472656 C 385.738281 63.132812 386.171875 63.285156 386.378906 63.265625 C 396.023438 62.984375 406.066406 62.132812 415.65625 62.300781 C 416.128906 60.210938 415.960938 60.078125 415 58.796875 Z M 387.148438 70.148438 C 377.613281 70.46875 367.910156 70.46875 357.925781 70.675781 C 348.957031 70.863281 339.496094 71.070312 330.285156 71.050781 C 329.679688 71.050781 328.664062 71.089844 328.210938 71.164062 C 327.664062 71.277344 327.363281 72.203125 326.703125 72.429688 C 325.722656 72.769531 324.367188 72.863281 323.199219 72.917969 C 320.675781 73.070312 318.074219 73.164062 315.398438 72.902344 C 313.871094 72.769531 312.476562 72.636719 311.609375 71.863281 C 309.988281 70.410156 308.199219 64.472656 307.863281 62.832031 C 307.445312 60.738281 307.050781 57.550781 308.199219 55.855469 C 308.390625 55.570312 309.40625 54.78125 309.894531 54.6875 C 310.820312 54.460938 312.269531 54.800781 313.417969 55.007812 C 316.039062 55.476562 331.980469 60.589844 334.410156 61.984375 C 349.710938 61.324219 365.199219 61.417969 380.496094 60.929688 C 384.378906 59.230469 388.617188 57.871094 393.085938 56.722656 C 397.511719 55.570312 402.222656 54.421875 407.253906 54.195312 C 409.683594 54.101562 413.078125 54.273438 415.09375 55.855469 C 416.074219 56.628906 416.75 58.15625 416.769531 59.363281 C 417.015625 60.644531 415.808594 70.167969 415.65625 70.824219 C 415.488281 71.601562 415.375 72.5625 414.882812 72.84375 C 414.527344 73.070312 394.761719 72.769531 393.027344 72.675781 C 391.992188 72.617188 390.824219 72.636719 390.050781 72.390625 C 388.902344 72.035156 388.128906 70.808594 387.148438 70.148438 Z M 434.671875 53.535156 C 434.726562 53.535156 434.78125 53.535156 434.839844 53.535156 C 436.816406 56.15625 438.949219 59.042969 440.550781 62.285156 C 440.738281 62.664062 441.207031 63.378906 441.097656 63.757812 C 440.90625 64.453125 439.832031 64 439.34375 63.8125 C 437.949219 63.324219 437.0625 62.910156 435.820312 62.398438 C 435.273438 62.152344 434.539062 62.097656 434.292969 61.511719 C 434.839844 61.304688 435.328125 61.757812 435.761719 61.945312 C 437.175781 62.585938 438.683594 63.285156 440.492188 63.605469 C 439.0625 60.003906 436.628906 56.910156 434.613281 53.703125 C 434.59375 53.613281 434.671875 53.613281 434.671875 53.535156 Z M 425.003906 75.804688 C 424.964844 76.539062 328.078125 78.558594 313.570312 78.558594 C 312.441406 78.558594 311.214844 78.707031 310.121094 78.332031 C 310.96875 77.878906 312.195312 77.972656 313.417969 77.953125 C 316.867188 77.898438 320.503906 77.671875 324.066406 77.671875 C 336.332031 77.671875 423.136719 74.972656 425.003906 75.804688 Z M 468.90625 80.800781 C 468.945312 80.800781 468.980469 80.800781 469.019531 80.800781 C 469.566406 81.367188 469.753906 82.175781 470.054688 82.839844 C 470.675781 84.214844 471.582031 85.363281 472.523438 86.476562 C 472.976562 86.984375 473.617188 87.457031 473.730469 88.175781 C 472.941406 88.230469 472.449219 87.457031 471.976562 86.96875 C 470.601562 85.496094 469.527344 83.121094 468.847656 80.96875 C 468.867188 80.933594 468.90625 80.875 468.90625 80.800781 Z M 483.734375 80.914062 C 483.773438 80.914062 483.792969 80.933594 483.792969 80.96875 C 484.414062 83.292969 485.148438 85.496094 486.429688 87.136719 C 486.65625 87.4375 487.089844 87.609375 487.089844 88.0625 C 486.296875 88.175781 485.863281 87.476562 485.488281 86.96875 C 484.433594 85.535156 483.640625 83.328125 483.507812 81.085938 C 483.621094 81.066406 483.621094 80.933594 483.734375 80.914062 Z M 479.609375 82.234375 C 479.664062 82.234375 479.722656 82.234375 479.777344 82.234375 C 480.285156 83.273438 480.664062 84.308594 481.152344 85.328125 C 481.625 86.308594 482.433594 86.96875 483.074219 87.796875 C 482.527344 88.042969 481.980469 87.53125 481.699219 87.25 C 480.644531 86.15625 480.0625 84.101562 479.609375 82.40625 C 479.609375 82.347656 479.609375 82.292969 479.609375 82.234375 Z M 474.332031 82.292969 C 474.425781 82.273438 474.425781 82.347656 474.503906 82.347656 C 475.011719 83.535156 475.539062 84.628906 476.21875 85.589844 C 476.878906 86.550781 477.894531 87.097656 478.574219 88.003906 C 477.535156 88.042969 476.554688 87.023438 476.046875 86.308594 C 475.273438 85.234375 474.765625 83.796875 474.332031 82.460938 C 474.238281 82.425781 474.332031 82.367188 474.332031 82.292969 Z M 426.039062 82.519531 C 426.09375 82.5 426.09375 82.535156 426.09375 82.574219 C 427.246094 83.835938 428.152344 85.308594 429.394531 86.476562 C 430.394531 87.402344 431.65625 87.964844 432.691406 88.890625 C 431.75 89.136719 430.957031 88.304688 430.222656 87.851562 C 428.867188 86.984375 428.039062 85.890625 427.09375 84.496094 C 426.640625 83.816406 426.171875 83.273438 426.039062 82.519531 Z M 419.445312 82.632812 C 419.503906 82.648438 419.539062 82.6875 419.613281 82.6875 C 420.765625 84.441406 421.949219 86.175781 423.570312 87.457031 C 424.097656 87.890625 424.835938 88.136719 425.117188 88.835938 C 424.34375 88.929688 423.816406 88.230469 423.308594 87.796875 C 422.78125 87.328125 422.308594 86.835938 421.875 86.308594 C 420.992188 85.25 420.066406 84.007812 419.503906 82.78125 C 419.445312 82.78125 419.464844 82.6875 419.445312 82.632812 Z M 320.617188 82.839844 C 320.675781 82.839844 320.730469 82.839844 320.769531 82.839844 C 321.765625 84.027344 322.859375 85.289062 324.234375 86.308594 C 325.554688 87.289062 327.0625 88.378906 328.683594 88.71875 C 328.984375 88.796875 329.625 88.683594 329.679688 89.0625 C 329.773438 89.664062 328.777344 89.324219 328.304688 89.175781 C 326.875 88.683594 325.628906 87.816406 324.515625 87.023438 C 323.839844 86.53125 323.027344 85.949219 322.3125 85.269531 C 321.691406 84.667969 320.597656 83.628906 320.617188 82.839844 Z M 316.171875 84.269531 C 318.035156 85.722656 319.730469 86.929688 321.992188 88.003906 C 322.539062 88.265625 323.160156 88.550781 323.746094 88.664062 C 324.707031 88.871094 326.003906 88.625 326.816406 89.117188 C 326.628906 89.699219 325.894531 89.550781 325.441406 89.550781 C 323.519531 89.550781 322.386719 89.136719 321.21875 88.511719 C 319.148438 87.382812 317.585938 86.082031 316.210938 84.441406 C 316.191406 84.402344 316.152344 84.34375 316.171875 84.269531 Z M 308.917969 80.855469 C 309.199219 80.539062 309.5 80.5 309.894531 80.480469 C 312.328125 80.292969 314.792969 80.40625 317.265625 80.3125 C 348.617188 79.140625 382.210938 79.160156 413.472656 79.160156 C 418.410156 79.160156 422.289062 79.066406 427.132812 78.878906 C 429.226562 77.050781 430.015625 74.125 430.167969 70.410156 C 430.46875 62.964844 430.074219 54.648438 431.429688 48.050781 C 432.351562 43.46875 434.199219 36.546875 442.261719 36.378906 C 445.257812 36.414062 446.9375 38.734375 447.914062 40.996094 C 448.234375 41.75 448.707031 42.636719 448.574219 43.523438 C 461.257812 50.953125 463.59375 80.386719 449.933594 87.269531 C 449.5 87.496094 448.933594 87.703125 448.386719 87.871094 C 447.839844 88.042969 446.390625 88.136719 445.992188 88.117188 C 445.542969 88.097656 445.523438 87.851562 445.164062 87.796875 C 444.167969 87.644531 443.335938 87.910156 442.527344 87.796875 C 438.796875 87.25 436.101562 85.140625 433.953125 82.839844 C 433.125 81.949219 432.21875 80.96875 431.804688 79.707031 C 432.203125 79.632812 432.410156 80.105469 432.578125 80.3125 C 434.066406 82.214844 435.628906 83.988281 437.796875 85.328125 C 440.246094 86.816406 443.941406 87.609375 447.199219 86.53125 C 452.644531 84.875 455.285156 80.105469 456.734375 75.070312 C 461.125 59.851562 450.027344 36.492188 436.042969 43.976562 C 435.875 44.109375 435.515625 44.449219 435.386719 44.464844 C 434.972656 44.503906 435.007812 44.222656 434.78125 44.183594 C 433.351562 49.425781 432.691406 55.835938 432.691406 62.664062 C 432.691406 66.132812 432.859375 69.582031 432.425781 72.5625 C 431.996094 75.40625 430.675781 79.085938 428.246094 80.554688 C 422.609375 80.480469 416.789062 80.441406 411.097656 80.5 C 411.625 82.328125 416.75 87.210938 418.410156 88.117188 C 418.84375 88.363281 419.464844 88.476562 419.726562 89.003906 C 416.507812 88.53125 411.777344 83.347656 410.324219 80.5 C 381.929688 80.933594 353.347656 80.800781 325.121094 81.253906 C 327.007812 84.742188 330.132812 87.816406 335.332031 88.0625 C 339.96875 88.304688 343.679688 86.007812 345.714844 83.441406 C 345.882812 83.234375 346.074219 83.0625 346.222656 82.839844 C 346.316406 82.667969 346.300781 82.328125 346.601562 82.292969 C 347.015625 82.445312 346.449219 82.726562 346.375 82.894531 C 343.925781 86.15625 340.382812 89.15625 334.558594 88.570312 C 329.4375 88.042969 326.175781 85.042969 324.347656 81.253906 C 320.84375 81.308594 317.039062 81.460938 313.363281 81.460938 C 312.117188 81.460938 310.800781 81.308594 309.671875 81.402344 C 309.3125 81.441406 309.367188 81.613281 309.066406 81.574219 C 307.445312 80.988281 305.882812 79.347656 305.015625 77.839844 C 304.679688 77.273438 304.46875 76.691406 304.679688 75.917969 C 304.941406 74.9375 305.882812 73.976562 306.054688 73.050781 C 306.242188 71.957031 305.808594 70.355469 305.621094 69.089844 C 305.054688 65.546875 304.773438 61.472656 305.167969 57.382812 C 305.695312 52.140625 306.582031 48.070312 308.445312 44.464844 C 305.507812 47.238281 303.714844 50.988281 302.378906 55.570312 C 301.003906 60.210938 300.757812 66.207031 302.039062 71.355469 C 303.1875 75.996094 305.507812 79.855469 308.3125 82.949219 C 310.78125 85.683594 314.53125 88.117188 318.960938 89.0625 C 319.261719 89.117188 319.695312 89.117188 319.675781 89.4375 C 319.65625 89.910156 318.242188 89.476562 317.921875 89.378906 C 313.496094 88.25 310.460938 85.875 307.75 83.179688 C 304.734375 80.140625 302.378906 75.671875 301.265625 70.921875 C 300.003906 65.394531 300.550781 59.191406 302.152344 54.59375 C 303.5625 50.480469 304.980469 47.140625 307.84375 44.464844 C 308.21875 44.125 308.878906 43.695312 309.105469 43.261719 C 309.859375 41.84375 310.519531 40.503906 311.460938 39.242188 C 312.363281 37.996094 313.363281 36.433594 314.191406 35.132812 C 316.132812 32.097656 318.414062 29.890625 321.824219 29.15625 C 325.796875 26.761719 330.171875 25.101562 335.578125 23.96875 C 342.851562 22.421875 345.394531 24.648438 347.976562 25.496094 C 349.957031 26.082031 350.953125 25.816406 352.875 25.800781 C 356.472656 25.78125 360.996094 25.496094 365.011719 25.214844 C 376.75 24.441406 388.488281 23.214844 401.113281 23.800781 C 405.011719 23.96875 406.992188 24.460938 410.496094 23.140625 C 418.371094 20.160156 426.660156 20.914062 434.953125 21.707031 C 435.628906 17.257812 438.949219 6.753906 443.75 3.777344 C 425.8125 1.703125 393.574219 0.71875 378.125 5.660156 C 366.761719 9.300781 358.660156 15.164062 348.957031 22.914062 C 349.03125 22.554688 349.371094 22.328125 349.617188 22.085938 C 351.367188 20.347656 353.515625 18.746094 355.550781 17.203125 C 361.054688 13.050781 366.875 9.542969 373.1875 6.078125 C 389.109375 -2.671875 438.835938 -2.144531 455.226562 2.34375 C 457.488281 2.964844 461.425781 4.945312 463.292969 6.09375 C 470.640625 10.5625 474.332031 14.710938 479.0625 21.820312 C 488.390625 22.535156 493.835938 29.175781 496.757812 37.261719 C 498.621094 42.390625 499.730469 48.273438 499.28125 55.25 C 499.222656 56.136719 499.015625 56.984375 498.960938 57.835938 C 499.203125 64.605469 500.203125 74.992188 496.378906 85.175781 C 495.738281 86.683594 493.550781 88.003906 491.648438 87.628906 C 488.21875 86.929688 486.597656 75.730469 487.351562 75.578125 C 487.9375 79.632812 488.992188 83.328125 489.992188 85.15625 C 490.425781 85.910156 490.96875 86.96875 491.914062 86.96875 C 493.363281 86.96875 494.738281 84.460938 495.210938 83.179688 C 498.09375 75.3125 498.261719 63.171875 497.039062 52.933594 C 496.699219 50.238281 496.078125 47.160156 494.835938 45.070312 C 494.457031 44.410156 493.71875 43.542969 493.023438 43.523438 C 491.894531 43.523438 491.175781 45.242188 490.707031 46.277344 C 488.445312 51.328125 487.863281 62.492188 486.863281 68.375 C 486.695312 69.394531 486.542969 70.675781 486.203125 71.523438 C 485.414062 73.484375 480.925781 78.3125 479.457031 79.535156 C 478.855469 80.027344 478.15625 80.6875 477.535156 80.800781 C 476.761719 80.953125 475.746094 80.613281 474.9375 80.425781 C 468.058594 78.746094 465.195312 79.386719 458.46875 81.140625 C 458.164062 81.214844 457.695312 81.5 457.355469 81.140625 C 457.355469 80.234375 458.203125 78.800781 458.804688 78.558594 C 461.351562 77.539062 468 76.824219 473.9375 78.40625 C 474.710938 78.632812 476.652344 78.765625 477.460938 78.671875 C 479.042969 78.5 484.734375 72.222656 485.1875 71.183594 C 485.542969 70.355469 485.695312 68.621094 485.847656 67.507812 C 486.789062 60.359375 487.144531 51.367188 489.613281 44.65625 C 490.199219 42.976562 491.046875 41.1875 492.082031 40.46875 C 493.457031 39.542969 495.492188 40.429688 496.867188 43.089844 C 498.339844 45.992188 498.246094 50.160156 498.734375 54.027344 C 499.09375 48.839844 498.261719 43.242188 496.757812 38.8125 C 495.550781 35.246094 492.121094 27.648438 487.75 27.136719 C 485.09375 26.835938 482.566406 27.816406 480.71875 28.683594 C 478.835938 29.570312 476.839844 30.511719 474.617188 31.097656 C 472.296875 31.71875 469.472656 32.117188 466.925781 31.757812 C 465.082031 31.511719 463.214844 31.136719 461.539062 30.71875 C 461.011719 30.589844 460.390625 30.570312 459.992188 30.171875 C 460.992188 30.15625 462.046875 30.457031 463.179688 30.605469 C 464.308594 30.757812 465.457031 30.890625 466.589844 31.003906 C 468.867188 31.191406 471.222656 30.8125 473.242188 30.171875 C 477.160156 28.929688 480.265625 26.855469 484.28125 25.988281 C 484.359375 25.96875 484.394531 25.949219 484.453125 25.929688 C 485.527344 25.816406 486.488281 25.875 487.371094 26.042969 C 485.488281 24.6875 483.394531 23.480469 479.34375 22.875 C 474.390625 22.140625 470.960938 23.347656 466.816406 24.007812 C 467.171875 23.5 467.925781 23.367188 468.511719 23.195312 C 470.375 22.613281 472.582031 22.140625 474.730469 21.820312 C 472.523438 17.804688 465.382812 10.582031 461.199219 8.621094 C 448.5 2.644531 447.125 13.597656 444.769531 23.535156 C 446.199219 24.308594 449.953125 26.121094 451.476562 24.347656 C 452.324219 23.386719 452.496094 21.3125 453.34375 20.445312 C 454.867188 18.878906 461.164062 16.9375 465.402344 17.164062 C 466.511719 17.238281 467.71875 17.9375 467.851562 18.898438 C 468.207031 21.460938 464.082031 26.496094 460.144531 26.664062 C 457.5625 26.855469 454.886719 26.421875 453.042969 27.042969 C 452.269531 27.457031 451.101562 28.929688 450.347656 29.378906 C 450.347656 29.378906 450.816406 27.570312 452.421875 26.328125 C 453.210938 25.894531 454.132812 25.988281 455.226562 25.929688 C 457.316406 25.835938 459.730469 26.023438 461.3125 25.382812 C 463.066406 24.6875 467.398438 20.140625 466.4375 18.820312 C 464.875 16.671875 456.320312 19.351562 454.226562 21.238281 C 453.042969 22.292969 453.4375 25.707031 449.839844 26.457031 C 448.96875 26.648438 447.914062 26.402344 447.066406 26.25 C 437.101562 24.402344 432.578125 28.835938 426.699219 36.414062 C 423.628906 40.390625 418.804688 45.222656 411.605469 46.710938 C 408.609375 47.3125 405.332031 47.277344 402.863281 46.105469 C 401.449219 45.464844 400.488281 44.277344 400.453125 42.542969 C 400.394531 40.828125 401.128906 39.394531 401.921875 38.09375 C 403.464844 35.566406 405.523438 33.679688 407.800781 32.097656 C 410.082031 30.511719 412.832031 29.097656 415.769531 28.136719 C 418.957031 27.082031 423.363281 26.476562 425.777344 28.175781 C 427.320312 29.269531 428.398438 31.664062 426.699219 34.304688 C 427.039062 34.171875 427.171875 33.832031 427.359375 33.585938 C 430.582031 29.589844 434.78125 25.101562 439.890625 24.066406 C 431.902344 23.140625 417.695312 22.121094 410.117188 25.007812 C 402.449219 27.929688 395.742188 32.34375 389.675781 36.980469 C 386.074219 39.734375 382.722656 42.582031 379.40625 45.617188 C 378.933594 46.050781 378.558594 46.636719 377.917969 46.824219 C 378.046875 46.070312 378.746094 45.597656 379.234375 45.070312 C 380.722656 43.449219 382.402344 41.84375 384.078125 40.335938 C 390.730469 34.359375 398.136719 29.25 406.652344 25.101562 C 391.21875 24.253906 376.03125 25.667969 361.429688 26.703125 C 359.035156 26.875 356.550781 26.988281 353.96875 27.136719 C 352.121094 27.269531 350.277344 27.4375 348.578125 27.703125 C 347.957031 27.796875 347.316406 27.742188 346.828125 27.910156 C 345.941406 28.214844 344.847656 29.269531 344.078125 29.949219 C 340.554688 33.019531 329.117188 49.953125 328.683594 50.066406 C 331.320312 44.183594 339.96875 29.53125 345.773438 26.214844 C 343.851562 26.214844 342.71875 24.949219 336.332031 25.6875 C 331.226562 26.648438 326.910156 27.796875 323.027344 29.683594 C 326.796875 30.023438 328.4375 32.964844 328.589844 36.546875 C 328.777344 41.714844 326.308594 45.9375 323.6875 48.371094 C 322.386719 49.59375 320.503906 50.554688 318.242188 50.574219 C 314.058594 50.574219 311.988281 46.351562 313.023438 41.335938 C 313.15625 39.863281 313.511719 38.679688 314.023438 37.378906 C 314.023438 37.320312 314.078125 37.320312 314.078125 37.261719 C 311.121094 41.542969 308.105469 46.390625 306.65625 52.328125 C 305.542969 56.894531 305.226562 62.378906 306.054688 67.449219 C 306.183594 68.28125 306.261719 69.128906 306.390625 69.921875 C 306.484375 70.695312 306.5625 71.523438 306.9375 72.183594 C 307.050781 74.035156 305.695312 75.125 305.828125 76.746094 C 305.902344 77.558594 306.65625 78.445312 307.144531 79.046875 C 307.710938 79.746094 308.3125 80.3125 308.917969 80.855469 " fill-opacity="1" fill-rule="evenodd"/><g fill="#ffffff" fill-opacity="1"><g transform="translate(-1.389098, 77.764143)"><g><path d="M 13.949219 -40.679688 C 7.4375 -40.507812 2.324219 -35.335938 2.324219 -29.058594 L 2.324219 -11.625 C 2.324219 -5.054688 7.730469 0 13.949219 0 L 31.382812 0 C 37.890625 0 43.003906 -5.460938 43.003906 -11.625 L 37.195312 -11.625 C 37.195312 -8.425781 34.578125 -5.8125 31.382812 -5.8125 L 13.949219 -5.8125 C 10.75 -5.8125 8.136719 -8.425781 8.136719 -11.625 L 8.136719 -29.058594 C 8.136719 -32.253906 10.75 -34.871094 13.949219 -34.871094 L 31.382812 -34.871094 C 34.578125 -34.871094 37.195312 -32.253906 37.195312 -29.058594 L 43.003906 -29.058594 C 42.832031 -35.507812 37.601562 -40.679688 31.382812 -40.679688 Z M 13.949219 -40.679688 "/></g></g></g><g fill="#ffffff" fill-opacity="1"><g transform="translate(48.473245, 77.764143)"><g><path d="M 31.964844 -34.871094 C 35.160156 -34.871094 37.773438 -32.253906 37.773438 -29.058594 L 37.773438 -17.433594 L 8.71875 -17.433594 L 8.71875 -29.058594 C 8.71875 -32.253906 11.332031 -34.871094 14.527344 -34.871094 Z M 43.585938 -29.058594 C 43.414062 -35.507812 38.183594 -40.679688 31.964844 -40.679688 L 14.527344 -40.679688 C 8.019531 -40.679688 2.90625 -35.21875 2.90625 -29.058594 L 2.90625 0 L 8.71875 0 L 8.71875 -11.625 L 37.773438 -11.625 L 37.773438 0 L 43.585938 0 Z M 43.585938 -29.058594 "/></g></g></g><g fill="#ffffff" fill-opacity="1"><g transform="translate(100.078976, 77.764143)"><g><path d="M 37.773438 -23.246094 C 37.773438 -20.050781 35.160156 -17.433594 31.964844 -17.433594 L 8.71875 -17.433594 L 8.71875 -34.871094 L 31.964844 -34.871094 C 35.160156 -34.871094 37.773438 -32.253906 37.773438 -29.058594 Z M 43.585938 0 L 43.585938 -4.125 L 35.507812 -12.203125 C 40.332031 -13.832031 43.585938 -18.304688 43.585938 -23.246094 L 43.585938 -29.058594 C 43.585938 -35.507812 38.066406 -40.679688 31.964844 -40.679688 L 2.90625 -40.679688 L 2.90625 0 L 8.71875 0 L 8.71875 -11.625 L 27.835938 -11.625 L 39.460938 0 Z M 43.585938 0 "/></g></g></g><g fill="#ffffff" fill-opacity="1"><g transform="translate(151.103592, 77.764143)"><g><path d="M 8.71875 -40.679688 L 2.90625 -40.679688 L 2.90625 0 L 8.71875 0 L 8.71875 -17.433594 L 37.773438 -17.433594 L 37.773438 0 L 43.585938 0 L 43.585938 -40.679688 L 37.773438 -40.679688 L 37.773438 -23.246094 L 8.71875 -23.246094 Z M 8.71875 -40.679688 "/></g></g></g><g fill="#ffffff" fill-opacity="1"><g transform="translate(202.709319, 77.764143)"><g><path d="M 37.773438 -11.625 C 37.773438 -8.425781 35.160156 -5.8125 31.964844 -5.8125 L 14.527344 -5.8125 C 11.332031 -5.8125 8.71875 -8.425781 8.71875 -11.625 L 8.71875 -40.679688 L 2.90625 -40.679688 L 2.90625 -11.625 C 2.90625 -5.054688 8.308594 0 14.527344 0 L 31.964844 0 C 38.472656 0 43.585938 -5.460938 43.585938 -11.625 L 43.585938 -40.679688 L 37.773438 -40.679688 Z M 37.773438 -11.625 "/></g></g></g><g fill="#ffffff" fill-opacity="1"><g transform="translate(254.315045, 77.764143)"><g><path d="M 31.964844 0 C 38.472656 -0.175781 43.585938 -5.347656 43.585938 -11.625 C 43.585938 -15.109375 42.25 -18.015625 39.636719 -20.339844 C 42.25 -22.664062 43.585938 -25.570312 43.585938 -29.058594 C 43.585938 -35.507812 38.066406 -40.679688 31.964844 -40.679688 L 2.90625 -40.679688 L 2.90625 0 Z M 31.964844 -17.433594 C 35.160156 -17.433594 37.773438 -14.820312 37.773438 -11.625 C 37.773438 -8.425781 35.160156 -5.8125 31.964844 -5.8125 L 8.71875 -5.8125 L 8.71875 -17.433594 Z M 8.71875 -34.871094 L 31.964844 -34.871094 C 35.160156 -34.871094 37.773438 -32.253906 37.773438 -29.058594 C 37.773438 -25.863281 35.160156 -23.246094 31.964844 -23.246094 L 8.71875 -23.246094 Z M 8.71875 -34.871094 "/></g></g></g></svg>